<svg xmlns="http://www.w3.org/2000/svg" viewbox="0 0  31.665 31.665"><path fill="#FFF" d="M16.878.415c-.854-.565-1.968-.552-2.809.034L1.485 9.214C.814 9.682.414 10.447.414 11.266v9.444c0 .84.421 1.623 1.122 2.086l12.79 8.455c.836.553 1.922.553 2.758 0l13.044-8.618c.7-.463 1.122-1.246 1.122-2.086v-9.279c0-.839-.421-1.622-1.121-2.085L16.878.415zm9.743 10.23L21.8 13.882l-4.521-3.288-.029-6.467 9.371 6.518zM13.979 4.133v6.329l-4.633 3.24-4.621-3.099 9.254-6.47zM3.458 13.722l2.991 2.004-2.991 2.093v-4.097zm10.6 13.493l-9.331-6.258 4.661-3.258 4.67 3.133v6.383zm-1.772-11.541l3.021-2.113 3.519 2.313-3.119 2.095-3.421-2.295zm5.068 11.541V20.83l4.463-2.991 4.805 3.159-9.268 6.217zm10.6-9.288l-3.168-2.082 3.168-2.125v4.207z"/></svg>