<svg xmlns="http://www.w3.org/2000/svg" viewBox="0 -64 384 384">
  <path fill="#FFF" d="M368 0H256c-4.71875 0-9.199219 2.078125-12.238281 5.695312L120.550781 152H16c-8.832031 0-16 7.167969-16 16v72c0 8.832031 7.167969 16 16 16h160c4.71875 0 9.199219-2.078125 12.238281-5.695312L311.449219 104H368c8.832031 0 16-7.167969 16-16V16c0-8.832031-7.167969-16-16-16zm-16 72h-48c-4.71875 0-9.199219 2.078125-12.238281 5.695312L168.550781 224H32v-40h96c4.71875 0 9.199219-2.078125 12.238281-5.695312L263.449219 32H352zm0 0"/>
  <path fill="#FFF" d="M.929688 117.167969c.4375 1.289062.992187 2.527343 1.726562 3.640625.023438.03125.03125.0625.054688.09375.777343 1.152344 1.730468 2.144531 2.769531 3.066406.246093.214844.496093.421875.757812.625 1.113281.863281 2.304688 1.628906 3.625 2.175781.007813 0 .015625.007813.015625.007813.25.101562.503906.132812.746094.222656.726562.265625 1.453125.519531 2.230469.671875C13.894531 127.886719 14.945312 128 16 128h48c8.832031 0 16-7.167969 16-16s-7.167969-16-16-16h-9.375l68.6875-68.6875c6.246094-6.25 6.246094-16.375 0-22.625-6.242188-6.246094-16.382812-6.246094-22.625 0L32 73.367188V64c0-8.832031-7.167969-16-16-16S0 55.167969 0 64v48c0 1.464844.265625 2.855469.632812 4.207031.085938.328125.183594.640625.296876.960938zm0 0"/>
</svg>
