<svg xmlns="http://www.w3.org/2000/svg" viewBox="0 0 128 128"><path fill="#303036" d="M2 1v125h125V1H2zm66.12 106.51c-1.85 3.75-5.37 6.21-9.45 7.4-6.27 1.44-12.27.62-16.73-2.05a18.82 18.82 0 0 1-6.9-7.9l9.52-5.84c.08.04.33.5.67 1.08 1.21 2.03 2.26 3.47 4.32 4.48 2.02.69 6.46 1.13 8.17-2.43 1.05-1.8.71-7.63.71-14.06 0-10.12.05-20.19.05-30.19h11.7c0 11 .07 21.42 0 32.15.03 6.58.6 12.45-2.06 17.36zm48.57-3.3c-4.07 13.92-26.76 14.37-35.83 5.17-1.91-2.16-3.11-3.3-4.26-5.8l9.51-5.48c2.55 3.92 4.9 6.07 9.14 6.95 5.75.7 11.53-1.27 10.23-7.38-1.33-4.98-11.77-6.2-18.87-11.53-7.21-4.84-8.9-16.61-2.97-23.33 1.97-2.5 5.34-4.35 8.87-5.24l3.7-.48c7.07-.14 11.5 1.73 14.75 5.36.9.92 1.64 1.9 3.02 4.04-3.77 2.4-3.76 2.39-9.16 5.88a8.72 8.72 0 0 0-5.1-4.72c-3.14-.95-7.1.08-7.92 3.4-.29 1.03-.23 1.98.22 3.67 1.28 2.9 5.55 4.16 9.38 5.92 11.03 4.48 14.76 9.27 15.67 14.98.88 4.92-.21 8.1-.38 8.59z" /></svg>