<svg xmlns="http://www.w3.org/2000/svg" viewBox="0 0 511.998 511.998">
  <path fill="#fefefe" d="M467.712 316.477c-4.69 0-9.325.758-13.73 2.195l-17.173-29.742c9.228-8.306 14.709-20.268 14.709-32.932 0-12.676-5.485-24.641-14.705-32.93l17.172-29.746c4.408 1.438 9.042 2.195 13.728 2.195 24.42 0 44.286-19.866 44.286-44.286 0-5.975-1.171-11.776-3.482-17.242-1.97-4.659-7.345-6.841-12.003-4.871-4.659 1.97-6.841 7.344-4.871 12.003 1.351 3.196 2.036 6.598 2.036 10.109 0 14.318-11.648 25.966-25.966 25.966-4.57 0-9.051-1.201-12.982-3.487-8.008-4.624-12.983-13.238-12.983-22.479 0-14.318 11.648-25.966 25.966-25.966 2.641 0 5.241.392 7.73 1.166 4.83 1.502 9.965-1.196 11.466-6.027 1.502-4.83-1.196-9.965-6.027-11.466-4.252-1.321-8.681-1.992-13.169-1.992-24.42 0-44.286 19.866-44.286 44.286 0 12.66 5.48 24.621 14.698 32.921l-17.176 29.754c-4.405-1.438-9.034-2.195-13.716-2.195-21.279 0-39.095 15.087-43.327 35.126h-34.331c-4.232-20.039-22.049-35.126-43.328-35.126-4.689 0-9.324.757-13.729 2.194l-17.176-29.754c9.222-8.304 14.698-20.26 14.698-32.921 0-12.659-5.479-24.62-14.699-32.929l17.182-29.756c4.41 1.435 9.042 2.191 13.724 2.191 24.42 0 44.286-19.866 44.286-44.286S310.668 2.164 286.248 2.164 241.962 22.03 241.962 46.45c0 12.652 5.478 24.613 14.7 32.926l-17.183 29.758c-4.41-1.435-9.042-2.191-13.724-2.191-21.279 0-39.095 15.087-43.327 35.126h-34.319c-4.232-20.039-22.049-35.126-43.327-35.126-24.42 0-44.286 19.866-44.286 44.286 0 12.652 5.477 24.61 14.69 32.917l-17.171 29.759c-4.408-1.438-9.04-2.195-13.727-2.195-14.959 0-28.802 7.473-37.029 19.991-2.779 4.227-1.604 9.908 2.623 12.686 4.228 2.779 9.906 1.604 12.686-2.623 4.828-7.346 12.948-11.732 21.719-11.732 4.57 0 9.051 1.201 12.979 3.486 8.011 4.629 12.987 13.243 12.987 22.48 0 9.244-4.976 17.863-12.995 22.497-3.918 2.269-8.403 3.469-12.972 3.469-12.283 0-22.981-8.714-25.438-20.721-1.015-4.956-5.855-8.151-10.81-7.138-4.956 1.014-8.152 5.854-7.138 10.81 4.193 20.494 22.44 35.369 43.386 35.369 4.683 0 9.315-.756 13.723-2.19l17.175 29.758c-9.217 8.313-14.69 20.272-14.69 32.926 0 12.643 5.474 24.6 14.693 32.921L58.01 423.451c-4.41-1.435-9.042-2.191-13.724-2.191C19.866 421.26 0 441.126 0 465.546s19.866 44.286 44.286 44.286 44.286-19.866 44.286-44.286c0-12.648-5.478-24.608-14.703-32.925l17.173-29.747c4.413 1.436 9.048 2.192 13.736 2.192 24.42 0 44.286-19.866 44.286-44.286 0-24.426-19.866-44.298-44.286-44.298-4.694 0-9.332.757-13.74 2.195L73.87 288.93c9.224-8.311 14.701-20.271 14.701-32.929 0-12.657-5.481-24.617-14.7-32.921l17.168-29.756c4.41 1.438 9.047 2.195 13.739 2.195 21.279 0 39.095-15.087 43.327-35.126h34.319c4.232 20.039 22.049 35.126 43.327 35.126 4.686 0 9.32-.757 13.728-2.195l17.178 29.758c-9.222 8.308-14.699 20.263-14.699 32.919 0 12.652 5.478 24.612 14.7 32.926l-17.178 29.751c-4.409-1.439-9.042-2.196-13.729-2.196-21.28 0-39.098 15.093-43.328 35.138h-15.985c-5.059 0-9.16 4.101-9.16 9.16s4.101 9.16 9.16 9.16h15.985c4.232 20.039 22.049 35.126 43.327 35.126 4.683 0 9.315-.756 13.726-2.191l17.182 29.747c-9.222 8.315-14.7 20.274-14.7 32.925 0 24.42 19.866 44.286 44.286 44.286 21.28 0 39.096-15.087 43.328-35.126h34.331c4.232 20.039 22.049 35.126 43.327 35.126 24.42 0 44.286-19.866 44.286-44.286 0-12.668-5.483-24.632-14.707-32.935l17.173-29.742c4.409 1.439 9.042 2.196 13.729 2.196 24.42 0 44.286-19.866 44.286-44.286.001-24.431-19.866-44.303-44.285-44.303zM286.244 20.484c14.318 0 25.966 11.648 25.966 25.966s-11.648 25.966-25.966 25.966c-4.569 0-9.054-1.199-12.976-3.471-8.012-4.636-12.99-13.255-12.99-22.495 0-14.318 11.648-25.966 25.966-25.966zM44.284 491.508c-14.318 0-25.966-11.648-25.966-25.966s11.648-25.966 25.966-25.966c4.569 0 9.054 1.199 12.973 3.469 8.014 4.641 12.994 13.261 12.994 22.497-.002 14.318-11.65 25.966-25.967 25.966zm47.523-153.239c3.906-2.272 8.392-3.472 12.971-3.472 14.317 0 25.965 11.654 25.965 25.978 0 14.318-11.648 25.966-25.966 25.966-4.576 0-9.066-1.199-12.98-3.467-8.01-4.644-12.985-13.265-12.985-22.498-.001-9.244 4.972-17.864 12.995-22.507zm12.97-161.074c-4.579 0-9.064-1.201-12.988-3.483-8.006-4.631-12.978-13.247-12.978-22.483 0-14.318 11.648-25.966 25.966-25.966s25.966 11.648 25.966 25.966-11.648 25.966-25.966 25.966zm133.961-3.49c-.01.005-.02.011-.028.016-3.906 2.272-8.387 3.472-12.957 3.472-14.319.001-25.967-11.647-25.967-25.965s11.648-25.966 25.966-25.966c4.568 0 9.054 1.199 12.979 3.474 8.011 4.629 12.987 13.248 12.987 22.492-.001 9.248-4.975 17.86-12.98 22.477zm168.493 56.325c4.563 0 9.039 1.201 12.982 3.493 8.01 4.609 12.984 13.221 12.984 22.473 0 9.249-4.978 17.867-12.991 22.489-.005.002-.01.006-.015.009-3.918 2.269-8.398 3.469-12.96 3.469-14.318 0-25.966-11.648-25.966-25.966 0-14.319 11.648-25.967 25.966-25.967zm-133.945 3.472c3.907-2.272 8.387-3.474 12.957-3.474 14.319.001 25.967 11.649 25.967 25.967s-11.648 25.966-25.966 25.966c-4.569 0-9.054-1.199-12.976-3.471-8.012-4.636-12.99-13.255-12.99-22.495s4.975-17.854 13.008-22.493zM238.73 383.267c-.002.001-.005.003-.007.005-3.918 2.269-8.404 3.469-12.972 3.469-14.318 0-25.966-11.648-25.966-25.966 0-14.324 11.648-25.978 25.966-25.978 4.57 0 9.051 1.201 12.987 3.489 8.006 4.618 12.979 13.234 12.979 22.489 0 9.244-4.976 17.863-12.987 22.492zm47.514 108.241c-14.318 0-25.966-11.648-25.966-25.966 0-9.24 4.978-17.86 12.994-22.497 3.918-2.269 8.403-3.469 12.972-3.469 14.318 0 25.966 11.648 25.966 25.966s-11.648 25.966-25.966 25.966zm120.987 0c-14.318 0-25.966-11.648-25.966-25.966s11.648-25.966 25.966-25.966c4.561 0 9.042 1.199 12.974 3.477 8.013 4.622 12.991 13.239 12.991 22.489 0 14.318-11.647 25.966-25.965 25.966zm30.894-97.815l-17.181 29.753c-4.408-1.435-9.036-2.191-13.712-2.191-21.281.001-39.098 15.089-43.328 35.127h-34.331c-4.232-20.039-22.049-35.126-43.328-35.126-4.684 0-9.315.756-13.725 2.191l-17.181-29.745c9.222-8.311 14.699-20.271 14.699-32.927 0-12.673-5.481-24.638-14.695-32.935l17.178-29.75c4.41 1.435 9.042 2.191 13.724 2.191 21.279 0 39.096-15.087 43.328-35.126h34.331c4.232 20.039 22.049 35.126 43.327 35.126 4.678 0 9.305-.755 13.713-2.191l17.181 29.754c-9.222 8.309-14.698 20.268-14.698 32.93 0 12.656 5.475 24.612 14.698 32.919zm29.587-6.952c-4.57 0-9.051-1.201-12.957-3.474-.008-.005-.017-.01-.024-.015-8.008-4.624-12.983-13.237-12.983-22.479 0-9.249 4.974-17.867 13.007-22.506 3.906-2.272 8.387-3.472 12.957-3.472 14.318 0 25.966 11.654 25.966 25.978-.001 14.32-11.649 25.968-25.966 25.968z"/>
</svg>
