<svg xmlns="http://www.w3.org/2000/svg" viewBox="0 0 128 128"><path fill="#303036" d="M1.22 56.16c0 .7.2 1.16.32 1.61.76 2.94 2.38 5.45 4.31 7.75 2.75 3.27 6.11 5.9 9.55 8.38 3 2.15 6.04 4.25 9.04 6.38.52.37 1 .79 1.56 1.24-.48.26-.88.49-1.3.7-3.95 2-7.76 4.26-11.27 6.98-2.12 1.65-4.17 3.4-5.61 5.68-2.33 3.67-3.15 7.58-1.42 11.76a6.94 6.94 0 0 0 2.37 3.05c.35.26.75.5 1.16.6 1.06.25 2.14.41 3.21.61h3.03c3.36-.3 6.41-1.45 9.17-3.35a20.11 20.11 0 0 0 8.47-12.09c.9-3.72.94-7.45-.13-11.15-.1-.35-.22-.68-.35-1.02-.13-.33-.29-.65-.47-1.07l6.88-3.95.1.09c-.12.4-.26.81-.37 1.23a27.85 27.85 0 0 0-1.16 9.11 17.5 17.5 0 0 0 3.06 9.15c1.56 2.23 5.28 2.31 6.94.07.6-.8 1.16-1.62 1.6-2.5 1.11-2.32 2.15-4.68 3.22-7.02l.19-.43c-.08 1.11-.17 2.08-.21 3.06-.06 1.52.02 3.03.54 4.48.45 1.23 1.2 2.16 2.62 2.32.97.11 1.75-.33 2.46-.9a10.38 10.38 0 0 0 2.7-3.2c1.9-3.48 3.84-6.95 5.57-10.53 1.86-3.87 3.5-7.86 5.22-11.8l.29-.7c.4 1.62.7 3.19 1.22 4.68a44.15 44.15 0 0 0 2.18 5.06c.4.77.35 1.28-.19 1.93-2.26 2.72-4.47 5.47-6.7 8.22-.48.6-.97 1.22-1.38 1.89-.25.4-.41.89-.48 1.36-.13.9.42 1.76 1.38 1.97.88.19 1.81.26 2.71.2 3.1-.23 5.9-1.32 8.4-3.16 3.22-2.39 4.25-5.64 3.47-9.5a21.06 21.06 0 0 0-.95-3.08c-.16-.45-.17-.77.13-1.2a97.85 97.85 0 0 0 6.82-11.56c.08-.16.16-.32.3-.49a30.04 30.04 0 0 0 3.45 9.8c-.91.87-1.81 1.67-2.63 2.55-1.8 1.93-3.36 4.03-4.17 6.6a7.8 7.8 0 0 0-.47 3.4c.25 1.83 1.75 3.02 3.55 2.6 3.85-.89 7.18-2.7 9.6-5.92 1.64-2.17 1.8-4.58 1.1-7.11-.18-.7-.4-1.37-.64-2.16.95-.3 1.88-.65 2.83-.87 4.98-1.13 9.9-.93 14.7.86 2.8 1.05 5.07 2.81 6.41 5.57 1.64 3.38.74 6.59-2.45 8.73-.3.2-.64.35-.88.6a.87.87 0 0 0-.2.67c.01.12.34.28.53.28 1.04-.01 1.9-.56 2.7-1.13 2.05-1.4 3.54-3.31 3.86-5.81l.06-.2-.07-1.62c-.04-.1.02-.19.01-.26-.43-3.64-2.38-6.47-5.21-8.69-3.28-2.56-7.15-3.62-11.25-3.78a25.4 25.4 0 0 0-9.77 1.5c-.9.32-1.78.7-2.68 1.07l-.36-.64c-.93-1.9-2.05-3.71-2.3-5.89-.17-1.54-.39-3.08-.02-4.61.35-1.47.81-2.91 1.24-4.36.23-.75.07-1.17-.64-1.5a2.85 2.85 0 0 0-.79-.26 12.1 12.1 0 0 0-5.17.38c-.6.18-1.04.52-1.17 1.18-.07.38-.23.75-.34 1.12-.44 1.56-.75 3.16-1.47 4.65-1.8 3.73-3.84 7.33-5.94 10.9l-.75 1.22c-.74-1.54-1.52-2.92-1.76-4.54-.27-1.83-.48-3.66-.02-5.48.33-1.35.78-2.68 1.19-4.02.19-.64.1-.97-.48-1.3a2.62 2.62 0 0 0-.94-.38c-1.82-.26-3.6-.12-5.36.44-.54.18-.83.53-1 1.09-.48 1.65-.9 3.34-1.58 4.91-2.78 6.36-5.63 12.7-8.48 19.02-.6 1.32-1.3 2.6-1.96 3.88-.17.33-.42.61-.63.92-.17-.2-.24-.34-.24-.48 0-.81-.09-1.65.06-2.43.47-2.38 1.01-4.75 1.58-7.1.47-1.95 1.02-3.88 1.54-5.81.18-.65.18-1.25-.29-1.8a2.69 2.69 0 0 0-3.38-.4l-.43.24.09-.7c.2-1.47.24-2.95-.16-4.4-.5-1.82-1.8-2.86-3.69-2.8a7.7 7.7 0 0 0-2.61.49c-3.42 1.34-6.05 3.71-8.29 6.57-.2.26-.47.5-.76.65-2.89 1.6-5.79 3.19-8.7 4.78l-3.22 1.77c-.87-.83-1.65-1.68-2.55-2.41-2.72-2.22-5.5-4.4-8.24-6.6-2.43-1.94-4.8-3.97-6.6-6.55a11.74 11.74 0 0 1-2.29-6.4c-.1-3.02.76-5.79 2.3-8.36 1.97-3.3 4.65-5.93 7.6-8.33a70.51 70.51 0 0 1 10.02-6.64c4.9-2.74 9.94-5.17 15.34-6.77 5.54-1.64 11.17-2.58 16.97-1.93 2.28.26 4.5.78 6.52 1.9 1.56.85 2.84 1.97 3.43 3.71a9.3 9.3 0 0 1 .16 5.2c-.82 3.54-2.76 6.45-5.19 9.06a35.1 35.1 0 0 1-14.35 9.09 39.48 39.48 0 0 1-9.77 2.08c-2.73.23-5.4-.01-7.98-.96-1.71-.63-3.2-1.6-4.4-2.99-.21-.25-.49-.52-.89-.29-.39.23-.46.6-.33.98.22.63.42 1.28.77 1.84.85 1.4 2.1 2.43 3.48 3.3 2.64 1.68 5.6 2.25 8.66 2.38 4.65.2 9.18-.5 13.65-1.74 6.39-1.78 11.94-4.93 16.39-9.89 3.7-4.13 6.35-8.79 6.92-14.42.27-2.74-.02-5.43-1.3-7.94a14.36 14.36 0 0 0-6.27-6.13A26.52 26.52 0 0 0 60.29 17h-4.31c-5.21 0-10.25 1.5-15.15 3.27-3.7 1.35-7.34 2.95-10.87 4.7-7.68 3.85-14.83 8.48-20.71 14.84-2.93 3.17-5.4 6.67-6.83 10.79a40.5 40.5 0 0 0-1.11 3.75m27.83 36c-.33 4.47-2.35 8.08-5.65 11.01a12.87 12.87 0 0 1-6.47 3.23 4.7 4.7 0 0 1-2.7-.19c-1.24-.53-1.52-1.63-1.55-2.81-.03-1.88.62-3.57 1.53-5.19 1.17-2.1 2.9-3.7 4.74-5.2a72.66 72.66 0 0 1 9.26-6.25l.25-.1c.5 1.84.73 3.66.6 5.5zM54.3 70.99a33.64 33.64 0 0 1-.94 4.23 126.4 126.4 0 0 1-5.28 13.97c-.37.85-.91 1.62-1.38 2.42-.07.12-.18.23-.28.33-.58.57-1.13.54-1.42-.2-.34-.87-.55-1.8-.73-2.72-.12-.62-.09-1.26-.13-1.9a23.79 23.79 0 0 1 3.74-12.38c.96-1.56 2-3.06 3.6-4.05.49-.3 1.04-.55 1.6-.7.84-.24 1.36.15 1.22 1zm17.17 21.87l6.17-7.2c.25 2.67-4.3 8.01-6.17 7.2zM91.17 88c-.44.25-.91.43-1.36.66-.4.21-.54 0-.55-.35-.01-.24.02-.5.09-.72A15.5 15.5 0 0 1 94 80.1l.16-.08A6.6 6.6 0 0 1 91.17 88z" clip-rule="evenodd"/></svg>